<mxfile host="65bd71144e">
    <diagram id="X-QS8aDUK1IpygxOowTY" name="Page-1">
        <mxGraphModel dx="1414" dy="821" grid="1" gridSize="10" guides="1" tooltips="1" connect="1" arrows="1" fold="1" page="0" pageScale="1" pageWidth="1100" pageHeight="850" background="none" math="0" shadow="0">
            <root>
                <mxCell id="0"/>
                <mxCell id="1" parent="0"/>
                <mxCell id="44" value="" style="rounded=0;whiteSpace=wrap;html=1;strokeColor=#6c8ebf;labelBackgroundColor=none;fontColor=#000000;gradientColor=#2645E0;fillColor=#65A6FC;strokeWidth=4;" vertex="1" parent="1">
                    <mxGeometry x="280" y="80" width="1080" height="700" as="geometry"/>
                </mxCell>
                <mxCell id="2" value="" style="endArrow=none;html=1;gradientColor=#7ea6e0;fillColor=#dae8fc;strokeColor=#6c8ebf;labelBackgroundColor=none;fontColor=#000000;strokeWidth=4;" edge="1" parent="1">
                    <mxGeometry width="50" height="50" relative="1" as="geometry">
                        <mxPoint x="40" y="780" as="sourcePoint"/>
                        <mxPoint x="40" y="40" as="targetPoint"/>
                    </mxGeometry>
                </mxCell>
                <mxCell id="3" value="" style="endArrow=none;html=1;gradientColor=#7ea6e0;fillColor=#dae8fc;strokeColor=#6c8ebf;labelBackgroundColor=none;fontColor=#000000;strokeWidth=4;" edge="1" parent="1">
                    <mxGeometry width="50" height="50" relative="1" as="geometry">
                        <mxPoint x="1360" y="779.9999999999998" as="sourcePoint"/>
                        <mxPoint x="1360" y="40" as="targetPoint"/>
                    </mxGeometry>
                </mxCell>
                <mxCell id="4" value="" style="endArrow=none;html=1;gradientColor=#7ea6e0;fillColor=#dae8fc;strokeColor=#6c8ebf;labelBackgroundColor=none;fontColor=#000000;strokeWidth=4;" edge="1" parent="1">
                    <mxGeometry width="50" height="50" relative="1" as="geometry">
                        <mxPoint x="40" y="780" as="sourcePoint"/>
                        <mxPoint x="1361.1428397042412" y="780" as="targetPoint"/>
                    </mxGeometry>
                </mxCell>
                <mxCell id="5" value="" style="endArrow=none;html=1;gradientColor=#7ea6e0;fillColor=#dae8fc;strokeColor=#6c8ebf;labelBackgroundColor=none;fontColor=#000000;strokeWidth=4;" edge="1" parent="1">
                    <mxGeometry width="50" height="50" relative="1" as="geometry">
                        <mxPoint x="40" y="40" as="sourcePoint"/>
                        <mxPoint x="1360" y="40" as="targetPoint"/>
                    </mxGeometry>
                </mxCell>
                <mxCell id="6" value="&lt;b&gt;&lt;font style=&quot;font-size: 19px&quot;&gt;Task Name&lt;/font&gt;&lt;/b&gt;" style="rounded=0;whiteSpace=wrap;html=1;gradientColor=#7ea6e0;fillColor=#dae8fc;strokeColor=#6c8ebf;labelBackgroundColor=none;fontColor=#000000;strokeWidth=4;" vertex="1" parent="1">
                    <mxGeometry x="40" y="40" width="240" height="40" as="geometry"/>
                </mxCell>
                <mxCell id="7" value="&lt;b&gt;&lt;font style=&quot;font-size: 28px&quot;&gt;Research&lt;/font&gt;&lt;/b&gt;" style="rounded=0;whiteSpace=wrap;html=1;gradientColor=#7ea6e0;fillColor=#dae8fc;strokeColor=#6c8ebf;labelBackgroundColor=none;fontColor=#000000;strokeWidth=4;" vertex="1" parent="1">
                    <mxGeometry x="40" y="80" width="240" height="60" as="geometry"/>
                </mxCell>
                <mxCell id="8" value="&lt;b&gt;&lt;font style=&quot;font-size: 28px&quot;&gt;Planning&lt;/font&gt;&lt;/b&gt;" style="rounded=0;whiteSpace=wrap;html=1;gradientColor=#7ea6e0;fillColor=#dae8fc;strokeColor=#6c8ebf;labelBackgroundColor=none;fontColor=#000000;strokeWidth=4;" vertex="1" parent="1">
                    <mxGeometry x="40" y="140" width="240" height="60" as="geometry"/>
                </mxCell>
                <mxCell id="9" value="&lt;b style=&quot;font-family: &amp;#34;helvetica&amp;#34; ; font-size: 12px ; font-style: normal ; letter-spacing: normal ; text-align: center ; text-indent: 0px ; text-transform: none ; word-spacing: 0px&quot;&gt;&lt;font style=&quot;font-size: 28px&quot;&gt;Fix Errors/Risk&lt;/font&gt;&lt;/b&gt;" style="rounded=0;whiteSpace=wrap;html=1;gradientColor=#7ea6e0;fillColor=#dae8fc;strokeColor=#6c8ebf;labelBackgroundColor=none;fontColor=#000000;strokeWidth=4;" vertex="1" parent="1">
                    <mxGeometry x="40" y="380" width="240" height="60" as="geometry"/>
                </mxCell>
                <mxCell id="10" value="&lt;b style=&quot;font-family: &amp;#34;helvetica&amp;#34;&quot;&gt;&lt;font style=&quot;font-size: 28px&quot;&gt;Firewall Review&lt;/font&gt;&lt;/b&gt;" style="rounded=0;whiteSpace=wrap;html=1;gradientColor=#7ea6e0;fillColor=#dae8fc;strokeColor=#6c8ebf;labelBackgroundColor=none;fontColor=#000000;strokeWidth=4;" vertex="1" parent="1">
                    <mxGeometry x="40" y="440" width="240" height="60" as="geometry"/>
                </mxCell>
                <mxCell id="11" value="&lt;b style=&quot;font-family: &amp;#34;helvetica&amp;#34; ; font-size: 12px ; font-style: normal ; letter-spacing: normal ; text-align: center ; text-indent: 0px ; text-transform: none ; word-spacing: 0px&quot;&gt;&lt;font style=&quot;font-size: 28px&quot;&gt;Web App Release&lt;/font&gt;&lt;/b&gt;" style="rounded=0;whiteSpace=wrap;html=1;gradientColor=#7ea6e0;fillColor=#dae8fc;strokeColor=#6c8ebf;labelBackgroundColor=none;fontColor=#000000;strokeWidth=4;" vertex="1" parent="1">
                    <mxGeometry x="40" y="500" width="240" height="80" as="geometry"/>
                </mxCell>
                <mxCell id="12" value="&lt;b style=&quot;font-family: helvetica; font-size: 12px; font-style: normal; letter-spacing: normal; text-align: center; text-indent: 0px; text-transform: none; word-spacing: 0px;&quot;&gt;&lt;font style=&quot;font-size: 28px&quot;&gt;Maintaining&lt;/font&gt;&lt;/b&gt;&lt;br&gt;" style="rounded=0;whiteSpace=wrap;html=1;gradientColor=#7ea6e0;fillColor=#dae8fc;strokeColor=#6c8ebf;labelBackgroundColor=none;fontColor=#000000;strokeWidth=4;" vertex="1" parent="1">
                    <mxGeometry x="40" y="580" width="240" height="70" as="geometry"/>
                </mxCell>
                <mxCell id="13" value="&lt;b style=&quot;font-family: &amp;#34;helvetica&amp;#34; ; font-size: 12px ; font-style: normal ; letter-spacing: normal ; text-align: center ; text-indent: 0px ; text-transform: none ; word-spacing: 0px&quot;&gt;&lt;font style=&quot;font-size: 28px&quot;&gt;Firewall Review&lt;/font&gt;&lt;/b&gt;" style="rounded=0;whiteSpace=wrap;html=1;gradientColor=#7ea6e0;fillColor=#dae8fc;strokeColor=#6c8ebf;labelBackgroundColor=none;fontColor=#000000;strokeWidth=4;" vertex="1" parent="1">
                    <mxGeometry x="40" y="320" width="240" height="60" as="geometry"/>
                </mxCell>
                <mxCell id="14" value="&lt;b&gt;&lt;font style=&quot;font-size: 28px&quot;&gt;Build&lt;/font&gt;&lt;/b&gt;" style="rounded=0;whiteSpace=wrap;html=1;gradientColor=#7ea6e0;fillColor=#dae8fc;strokeColor=#6c8ebf;labelBackgroundColor=none;fontColor=#000000;strokeWidth=4;" vertex="1" parent="1">
                    <mxGeometry x="40" y="260" width="240" height="60" as="geometry"/>
                </mxCell>
                <mxCell id="15" value="&lt;b&gt;&lt;font style=&quot;font-size: 28px&quot;&gt;Design&lt;/font&gt;&lt;/b&gt;" style="rounded=0;whiteSpace=wrap;html=1;gradientColor=#7ea6e0;fillColor=#dae8fc;strokeColor=#6c8ebf;labelBackgroundColor=none;fontColor=#000000;strokeWidth=4;" vertex="1" parent="1">
                    <mxGeometry x="40" y="200" width="240" height="60" as="geometry"/>
                </mxCell>
                <mxCell id="16" value="&lt;b&gt;&lt;font style=&quot;font-size: 19px&quot;&gt;Jan-Feb 2022&lt;/font&gt;&lt;/b&gt;" style="rounded=0;whiteSpace=wrap;html=1;gradientColor=#7ea6e0;fillColor=#dae8fc;strokeColor=#6c8ebf;labelBackgroundColor=none;fontColor=#000000;strokeWidth=4;" vertex="1" parent="1">
                    <mxGeometry x="280" y="40" width="180" height="40" as="geometry"/>
                </mxCell>
                <mxCell id="17" value="&lt;b&gt;&lt;font style=&quot;font-size: 19px&quot;&gt;May-June&amp;nbsp;&lt;/font&gt;&lt;/b&gt;&lt;b&gt;&lt;font style=&quot;font-size: 19px&quot;&gt;2022&lt;/font&gt;&lt;/b&gt;" style="rounded=0;whiteSpace=wrap;html=1;gradientColor=#7ea6e0;fillColor=#dae8fc;strokeColor=#6c8ebf;labelBackgroundColor=none;fontColor=#000000;strokeWidth=4;" vertex="1" parent="1">
                    <mxGeometry x="640" y="40" width="180" height="40" as="geometry"/>
                </mxCell>
                <mxCell id="18" value="&lt;b&gt;&lt;font style=&quot;font-size: 19px&quot;&gt;July-Aug&amp;nbsp;&lt;/font&gt;&lt;/b&gt;&lt;b&gt;&lt;font style=&quot;font-size: 19px&quot;&gt;2022&lt;/font&gt;&lt;/b&gt;" style="rounded=0;whiteSpace=wrap;html=1;gradientColor=#7ea6e0;fillColor=#dae8fc;strokeColor=#6c8ebf;labelBackgroundColor=none;fontColor=#000000;strokeWidth=4;" vertex="1" parent="1">
                    <mxGeometry x="820" y="40" width="180" height="40" as="geometry"/>
                </mxCell>
                <mxCell id="19" value="&lt;b&gt;&lt;font style=&quot;font-size: 19px&quot;&gt;Sept-Oct&amp;nbsp;&lt;/font&gt;&lt;/b&gt;&lt;b&gt;&lt;font style=&quot;font-size: 19px&quot;&gt;2022&lt;/font&gt;&lt;/b&gt;" style="rounded=0;whiteSpace=wrap;html=1;gradientColor=#7ea6e0;fillColor=#dae8fc;strokeColor=#6c8ebf;labelBackgroundColor=none;fontColor=#000000;strokeWidth=4;" vertex="1" parent="1">
                    <mxGeometry x="1000" y="40" width="180" height="40" as="geometry"/>
                </mxCell>
                <mxCell id="20" value="&lt;b&gt;&lt;font style=&quot;font-size: 19px&quot;&gt;Nov-Dec&amp;nbsp;&lt;/font&gt;&lt;/b&gt;&lt;b&gt;&lt;font style=&quot;font-size: 19px&quot;&gt;2022&lt;/font&gt;&lt;/b&gt;" style="rounded=0;whiteSpace=wrap;html=1;gradientColor=#7ea6e0;fillColor=#dae8fc;strokeColor=#6c8ebf;labelBackgroundColor=none;fontColor=#000000;strokeWidth=4;" vertex="1" parent="1">
                    <mxGeometry x="1180" y="40" width="180" height="40" as="geometry"/>
                </mxCell>
                <mxCell id="22" value="&lt;span style=&quot;font-size: 19px&quot;&gt;&lt;b&gt;Mar-Apr&amp;nbsp;&lt;/b&gt;&lt;/span&gt;&lt;b&gt;&lt;font style=&quot;font-size: 19px&quot;&gt;2022&lt;/font&gt;&lt;/b&gt;" style="rounded=0;whiteSpace=wrap;html=1;gradientColor=#7ea6e0;fillColor=#dae8fc;strokeColor=#6c8ebf;labelBackgroundColor=none;fontColor=#000000;strokeWidth=4;" vertex="1" parent="1">
                    <mxGeometry x="460" y="40" width="180" height="40" as="geometry"/>
                </mxCell>
                <mxCell id="24" value="&lt;b style=&quot;font-family: helvetica; font-size: 12px; font-style: normal; letter-spacing: normal; text-align: center; text-indent: 0px; text-transform: none; word-spacing: 0px;&quot;&gt;&lt;font style=&quot;font-size: 28px&quot;&gt;Mobile App&lt;/font&gt;&lt;/b&gt;" style="rounded=0;whiteSpace=wrap;html=1;gradientColor=#7ea6e0;fillColor=#dae8fc;strokeColor=#6c8ebf;labelBackgroundColor=none;fontColor=#000000;strokeWidth=4;" vertex="1" parent="1">
                    <mxGeometry x="40" y="650" width="240" height="70" as="geometry"/>
                </mxCell>
                <mxCell id="25" value="&lt;b style=&quot;font-family: helvetica; font-size: 12px; font-style: normal; letter-spacing: normal; text-align: center; text-indent: 0px; text-transform: none; word-spacing: 0px;&quot;&gt;&lt;font style=&quot;font-size: 28px&quot;&gt;Mobile Release&lt;/font&gt;&lt;/b&gt;" style="rounded=0;whiteSpace=wrap;html=1;gradientColor=#7ea6e0;fillColor=#dae8fc;strokeColor=#6c8ebf;labelBackgroundColor=none;fontColor=#000000;strokeWidth=4;" vertex="1" parent="1">
                    <mxGeometry x="40" y="720" width="240" height="60" as="geometry"/>
                </mxCell>
                <mxCell id="26" value="" style="endArrow=none;html=1;entryX=0;entryY=1;entryDx=0;entryDy=0;gradientColor=#7ea6e0;fillColor=#dae8fc;strokeColor=#6c8ebf;labelBackgroundColor=none;fontColor=#000000;strokeWidth=4;" edge="1" parent="1" target="22">
                    <mxGeometry width="50" height="50" relative="1" as="geometry">
                        <mxPoint x="460" y="780" as="sourcePoint"/>
                        <mxPoint x="700" y="350" as="targetPoint"/>
                    </mxGeometry>
                </mxCell>
                <mxCell id="27" value="" style="endArrow=none;html=1;entryX=0;entryY=1;entryDx=0;entryDy=0;gradientColor=#7ea6e0;fillColor=#dae8fc;strokeColor=#6c8ebf;labelBackgroundColor=none;fontColor=#000000;strokeWidth=4;" edge="1" parent="1">
                    <mxGeometry width="50" height="50" relative="1" as="geometry">
                        <mxPoint x="1000" y="779.9999999999998" as="sourcePoint"/>
                        <mxPoint x="1000" y="80" as="targetPoint"/>
                    </mxGeometry>
                </mxCell>
                <mxCell id="28" value="" style="endArrow=none;html=1;entryX=0;entryY=1;entryDx=0;entryDy=0;gradientColor=#7ea6e0;fillColor=#dae8fc;strokeColor=#6c8ebf;labelBackgroundColor=none;fontColor=#000000;strokeWidth=4;" edge="1" parent="1">
                    <mxGeometry width="50" height="50" relative="1" as="geometry">
                        <mxPoint x="818.5699999999999" y="779.9999999999998" as="sourcePoint"/>
                        <mxPoint x="818.5699999999999" y="80" as="targetPoint"/>
                    </mxGeometry>
                </mxCell>
                <mxCell id="29" value="" style="endArrow=none;html=1;entryX=0;entryY=1;entryDx=0;entryDy=0;gradientColor=#7ea6e0;fillColor=#dae8fc;strokeColor=#6c8ebf;labelBackgroundColor=none;fontColor=#000000;strokeWidth=4;" edge="1" parent="1">
                    <mxGeometry width="50" height="50" relative="1" as="geometry">
                        <mxPoint x="638.5699999999999" y="779.9999999999998" as="sourcePoint"/>
                        <mxPoint x="638.5699999999999" y="80" as="targetPoint"/>
                    </mxGeometry>
                </mxCell>
                <mxCell id="30" value="" style="endArrow=none;html=1;entryX=0;entryY=1;entryDx=0;entryDy=0;gradientColor=#7ea6e0;fillColor=#dae8fc;strokeColor=#6c8ebf;labelBackgroundColor=none;fontColor=#000000;strokeWidth=4;" edge="1" parent="1">
                    <mxGeometry width="50" height="50" relative="1" as="geometry">
                        <mxPoint x="1180" y="779.9999999999998" as="sourcePoint"/>
                        <mxPoint x="1180" y="80" as="targetPoint"/>
                    </mxGeometry>
                </mxCell>
                <mxCell id="31" value="" style="rounded=1;whiteSpace=wrap;html=1;gradientColor=#ffd966;fillColor=#fff2cc;strokeColor=#d6b656;labelBackgroundColor=none;strokeWidth=4;" vertex="1" parent="1">
                    <mxGeometry x="280" y="95" width="180" height="30" as="geometry"/>
                </mxCell>
                <mxCell id="32" value="" style="rounded=1;whiteSpace=wrap;html=1;gradientColor=#ffd966;fillColor=#fff2cc;strokeColor=#d6b656;labelBackgroundColor=none;strokeWidth=4;" vertex="1" parent="1">
                    <mxGeometry x="280" y="155" width="180" height="30" as="geometry"/>
                </mxCell>
                <mxCell id="33" value="" style="rounded=1;whiteSpace=wrap;html=1;gradientColor=#ffd966;fillColor=#fff2cc;strokeColor=#d6b656;labelBackgroundColor=none;strokeWidth=4;" vertex="1" parent="1">
                    <mxGeometry x="280" y="215" width="180" height="30" as="geometry"/>
                </mxCell>
                <mxCell id="34" value="" style="rounded=1;whiteSpace=wrap;html=1;gradientColor=#97d077;fillColor=#d5e8d4;strokeColor=#82b366;labelBackgroundColor=none;strokeWidth=4;" vertex="1" parent="1">
                    <mxGeometry x="460" y="275" width="540" height="30" as="geometry"/>
                </mxCell>
                <mxCell id="35" value="" style="rounded=1;whiteSpace=wrap;html=1;gradientColor=#ea6b66;fillColor=#f8cecc;strokeColor=#b85450;labelBackgroundColor=none;strokeWidth=4;" vertex="1" parent="1">
                    <mxGeometry x="820" y="335" width="180" height="30" as="geometry"/>
                </mxCell>
                <mxCell id="36" value="" style="rounded=1;whiteSpace=wrap;html=1;gradientColor=#d5739d;fillColor=#e6d0de;strokeColor=#996185;labelBackgroundColor=none;strokeWidth=4;" vertex="1" parent="1">
                    <mxGeometry x="820" y="395" width="180" height="30" as="geometry"/>
                </mxCell>
                <mxCell id="37" value="" style="rounded=1;whiteSpace=wrap;html=1;gradientColor=#ea6b66;fillColor=#f8cecc;strokeColor=#b85450;labelBackgroundColor=none;strokeWidth=4;" vertex="1" parent="1">
                    <mxGeometry x="910" y="455" width="180" height="30" as="geometry"/>
                </mxCell>
                <mxCell id="39" value="" style="rounded=1;whiteSpace=wrap;html=1;fillColor=#d5e8d4;strokeColor=#82b366;labelBackgroundColor=none;gradientColor=#97d077;strokeWidth=4;" vertex="1" parent="1">
                    <mxGeometry x="1000" y="525" width="180" height="30" as="geometry"/>
                </mxCell>
                <mxCell id="40" value="" style="rounded=1;whiteSpace=wrap;html=1;fillColor=#e6d0de;strokeColor=#996185;labelBackgroundColor=none;gradientColor=#d5739d;strokeWidth=4;" vertex="1" parent="1">
                    <mxGeometry x="1000" y="600" width="360" height="30" as="geometry"/>
                </mxCell>
                <mxCell id="42" value="" style="rounded=1;whiteSpace=wrap;html=1;gradientColor=#97d077;fillColor=#d5e8d4;strokeColor=#82b366;labelBackgroundColor=none;strokeWidth=4;" vertex="1" parent="1">
                    <mxGeometry x="460" y="670" width="540" height="30" as="geometry"/>
                </mxCell>
                <mxCell id="43" value="" style="rounded=1;whiteSpace=wrap;html=1;gradientColor=#97d077;fillColor=#d5e8d4;strokeColor=#82b366;labelBackgroundColor=none;strokeWidth=4;" vertex="1" parent="1">
                    <mxGeometry x="1000" y="735" width="180" height="30" as="geometry"/>
                </mxCell>
                <mxCell id="46" value="&lt;b&gt;&lt;font style=&quot;font-size: 25px ; background-color: rgb(65 , 255 , 36)&quot;&gt;Wurklo Project Overview&lt;/font&gt;&lt;/b&gt;" style="text;html=1;strokeColor=none;fillColor=none;align=center;verticalAlign=middle;whiteSpace=wrap;rounded=0;labelBackgroundColor=none;fontColor=#000000;" vertex="1" parent="1">
                    <mxGeometry x="470" width="410" height="30" as="geometry"/>
                </mxCell>
            </root>
        </mxGraphModel>
    </diagram>
</mxfile>